<svg width="18" height="20" viewBox="0 0 18 20" xmlns="http://www.w3.org/2000/svg">
<path d="M16.924 7.154H16.41L16.437 5.264C16.4338 5.15355 16.3912 5.04788 16.317 4.966L11.901 0.134C11.8655 0.0934626 11.8221 0.0606496 11.7734 0.0375982C11.7247 0.0145468 11.6718 0.00174921 11.618 0L2.37801 0C2.17084 0.00332606 1.97304 0.0869012 1.82625 0.233132C1.67946 0.379363 1.59513 0.576843 1.59101 0.784V7.154H1.07601C0.791012 7.154 0.516012 7.272 0.316012 7.482C0.111951 7.69543 -0.00133268 7.97972 1.18325e-05 8.275V14.105C1.18325e-05 14.723 0.482012 15.225 1.07601 15.225H1.59101V19.215C1.59489 19.4227 1.67938 19.6207 1.82663 19.7672C1.97387 19.9137 2.17232 19.9972 2.38001 20H15.658C16.073 20 16.438 19.648 16.438 19.216V15.226H16.925C17.519 15.226 18.001 14.723 18.001 14.104V8.274C18.001 7.978 17.888 7.692 17.686 7.482C17.588 7.37887 17.4702 7.29664 17.3396 7.24027C17.2089 7.1839 17.0683 7.15455 16.926 7.154M2.95001 1.378H9.90601V5.955C9.90563 6.05806 9.94503 6.15728 10.016 6.232C10.0504 6.2682 10.0919 6.29706 10.1377 6.31682C10.1836 6.33659 10.233 6.34685 10.283 6.347H15.042V7.154H2.95001V1.378ZM2.95001 18.622V15.225H15.042V18.622H2.95001ZM11.291 1.52L11.676 1.954L14.256 4.807L14.399 4.98H11.762C11.562 4.98 11.437 4.947 11.384 4.88C11.331 4.815 11.3 4.71 11.291 4.567V1.52ZM2.00001 14.232V8.232H3.91801C4.64401 8.232 5.11801 8.262 5.33801 8.322C5.67801 8.412 5.96201 8.608 6.19101 8.91C6.41901 9.211 6.53401 9.6 6.53401 10.078C6.53401 10.446 6.46801 10.756 6.33601 11.008C6.20401 11.258 6.03601 11.455 5.83301 11.598C5.64745 11.7335 5.43664 11.8304 5.21301 11.883C4.92801 11.94 4.51501 11.969 3.97401 11.969H3.19501V14.232H2.00001ZM3.19501 9.247V10.95H3.84901C4.32001 10.95 4.63501 10.918 4.79401 10.856C4.94769 10.798 5.07934 10.6933 5.17045 10.5566C5.26157 10.42 5.30758 10.2582 5.30201 10.094C5.30931 9.89644 5.24141 9.70347 5.11201 9.554C4.98716 9.41303 4.81773 9.31914 4.63201 9.288C4.49001 9.261 4.20301 9.248 3.77201 9.248L3.19501 9.247ZM7.23501 8.232H9.41901C9.91201 8.232 10.287 8.27 10.546 8.347C10.893 8.45 11.19 8.635 11.438 8.899C11.685 9.164 11.874 9.488 12.003 9.871C12.133 10.255 12.197 10.727 12.197 11.289C12.197 11.783 12.137 12.209 12.015 12.566C11.867 13.003 11.655 13.356 11.381 13.626C11.174 13.831 10.894 13.991 10.541 14.106C10.278 14.19 9.92501 14.232 9.48401 14.232H7.23501V8.232ZM8.43001 9.247V13.221H9.32201C9.65601 13.221 9.89701 13.202 10.045 13.164C10.239 13.114 10.4 13.032 10.527 12.914C10.655 12.797 10.76 12.604 10.84 12.335C10.921 12.066 10.961 11.7 10.961 11.236C10.961 10.772 10.921 10.416 10.841 10.168C10.7775 9.94919 10.6607 9.74955 10.501 9.587C10.3467 9.44294 10.1551 9.34492 9.94801 9.304C9.78101 9.266 9.45401 9.247 8.96801 9.247H8.43001ZM12.943 14.232V8.232H17V9.247H14.138V10.667H16.608V11.682H14.138V14.232H12.943Z" fill="black"/>
</svg>
