<svg width="130" height="100" viewBox="0 0 130 100" fill="none" xmlns="http://www.w3.org/2000/svg">
<path d="M99.3339 48.9766C105.47 57.852 110.388 64.9284 114.087 70.2059C114.407 70.6639 114.722 71.2709 114.388 71.8117C113.978 72.4813 113.428 72.7398 112.738 72.5871C112.17 72.4629 111.883 71.9663 111.552 71.4806C105.688 62.9216 99.8223 54.4453 93.8652 45.9083C91.0728 41.9075 88.2161 37.7935 85.2951 33.5664C78.524 23.7639 71.6738 13.8786 64.7445 3.91048C64.7265 3.88417 64.7024 3.86272 64.6741 3.848C64.6458 3.83328 64.6143 3.82573 64.5822 3.826C64.5501 3.82627 64.5185 3.83436 64.49 3.84956C64.4616 3.86476 64.4372 3.88662 64.4189 3.91324C63.7917 4.84585 63.1957 5.73339 62.631 6.57587C48.7595 27.2405 34.1394 49.0143 18.7706 71.8973C18.1728 72.7894 17.4471 72.9485 16.5936 72.3746C15.4486 71.602 16.2156 70.606 16.7702 69.7865C28.1988 52.867 39.5815 35.9117 50.9181 18.9206C54.8601 13.0508 58.8049 7.1783 62.7524 1.30303C62.9473 1.0124 63.1782 0.730957 63.4449 0.458716C64.0906 -0.200734 65.2025 -0.148313 65.7351 0.610469C77.0257 16.669 88.1426 32.8518 99.3339 48.9766Z" fill="#FAFCFD"/>
<path d="M90.0532 61.0785C90.5591 61.8713 91.0419 62.5777 91.5018 63.1976C92.5531 64.6158 90.3595 66.401 89.1234 64.6268C80.9966 52.9572 72.8864 41.3253 64.7927 29.7312C64.6511 29.5288 64.5113 29.5298 64.3733 29.7339C56.55 41.2821 48.7755 52.8331 41.0497 64.3868C40.3636 65.4132 39.5377 65.5493 38.572 64.7951C37.689 64.1053 38.5527 63.032 38.9859 62.3891C45.4277 52.8404 51.8631 43.2871 58.292 33.7293C59.8353 31.4226 61.3943 29.126 62.9689 26.8395C63.4306 26.1681 64.0219 25.8554 64.743 25.9014C65.5128 25.9511 65.9929 26.7071 66.3875 27.2727C77.7885 43.5631 85.2384 54.2302 88.7371 59.274C89.3864 60.2084 89.8251 60.8099 90.0532 61.0785Z" fill="#FAFCFD"/>
<path d="M73.2463 61.4106C72.3974 62.9611 72.9358 64.8896 74.4489 65.718C75.962 66.5464 77.8768 65.961 78.7257 64.4105C79.5745 62.86 79.0361 60.9315 77.523 60.1031C76.0099 59.2747 74.0951 59.8601 73.2463 61.4106Z" fill="#E46643"/>
<path d="M0 98.9125C0.075 98.3525 0.1475 97.7925 0.2175 97.2325C0.2875 96.6725 0.3625 96.065 0.4425 95.41L0.885 91.825C0.97 91.18 1.0475 90.57 1.1175 89.995C1.1875 89.42 1.26 88.8275 1.335 88.2175H3.8325C4.0725 88.8275 4.30125 89.4113 4.51875 89.9688C4.73625 90.5263 4.9525 91.08 5.1675 91.63L6.4425 94.9H6.6075L7.845 91.6375C8.055 91.0825 8.26375 90.5325 8.47125 89.9875C8.67875 89.4425 8.8975 88.8525 9.1275 88.2175H11.595C11.67 88.8175 11.7437 89.405 11.8162 89.98C11.8887 90.555 11.9675 91.1725 12.0525 91.8325L12.51 95.4325C12.59 96.0825 12.6663 96.6825 12.7388 97.2325C12.8113 97.7825 12.8825 98.3425 12.9525 98.9125H10.605C10.515 98.1625 10.4275 97.45 10.3425 96.775C10.2575 96.1 10.18 95.4675 10.11 94.8775L9.795 92.3425H9.63L8.7 95.065C8.475 95.735 8.24875 96.3988 8.02125 97.0563C7.79375 97.7138 7.5825 98.3325 7.3875 98.9125H5.7525C5.6125 98.5375 5.46125 98.135 5.29875 97.705C5.13625 97.275 4.97 96.8363 4.8 96.3888C4.63 95.9413 4.4625 95.5025 4.2975 95.0725L3.2625 92.3425H3.0975L2.79 94.8625C2.72 95.4575 2.64375 96.0938 2.56125 96.7713C2.47875 97.4488 2.3925 98.1625 2.3025 98.9125H0Z" fill="white"/>
<path fill-rule="evenodd" clip-rule="evenodd" d="M19.6138 97.0975C19.4063 97.7325 19.2076 98.3375 19.0176 98.9125H21.4926L22.0063 97.1538C22.0532 96.9932 22.0996 96.8344 22.1453 96.6775H25.9971C26.0425 96.8364 26.0885 96.9977 26.1351 97.1613C26.3051 97.7588 26.4701 98.3425 26.6301 98.9125H29.1801C28.9951 98.3425 28.8013 97.745 28.5988 97.12C28.3963 96.495 28.1976 95.8875 28.0026 95.2975L26.8101 91.6225C26.5951 90.9725 26.4013 90.3825 26.2288 89.8525C26.0563 89.3225 25.8801 88.7775 25.7001 88.2175H22.5201C22.3451 88.7575 22.1701 89.2938 21.9951 89.8263C21.8201 90.3588 21.6251 90.9575 21.4101 91.6225L20.2026 95.29C20.0176 95.86 19.8213 96.4625 19.6138 97.0975ZM25.4678 94.8325H26.6376L26.8476 96.6775H25.9971C25.8767 96.256 25.7601 95.851 25.6476 95.4625L25.4678 94.8325ZM25.4678 94.8325H22.6807L23.9976 90.31H24.1776L25.4678 94.8325ZM22.6807 94.8325L22.5126 95.41C22.3949 95.8183 22.2724 96.2408 22.1453 96.6775H21.5976L21.8601 94.8325H22.6807Z" fill="white"/>
<path d="M35.5303 98.9125C35.5303 98.3375 35.5303 97.78 35.5303 97.24C35.5303 96.7 35.5303 96.095 35.5303 95.425V91.795C35.5303 91.105 35.5303 90.4825 35.5303 89.9275C35.5303 89.3725 35.5303 88.8025 35.5303 88.2175C35.8553 88.2175 36.239 88.2175 36.6815 88.2175C37.124 88.2175 37.5978 88.2175 38.1028 88.2175C38.6078 88.2175 39.1178 88.2175 39.6328 88.2175C40.5028 88.2175 41.239 88.3138 41.8415 88.5063C42.444 88.6988 42.9015 89.02 43.214 89.47C43.5265 89.92 43.6828 90.5325 43.6828 91.3075C43.6828 91.9225 43.5615 92.475 43.319 92.965C43.0765 93.455 42.6878 93.8425 42.1528 94.1275C41.6178 94.4125 40.9178 94.555 40.0528 94.555L41.0053 93.655L42.4603 95.8C42.6853 96.13 42.9253 96.4838 43.1803 96.8613C43.4353 97.2388 43.684 97.6063 43.9265 97.9638C44.169 98.3213 44.3828 98.6375 44.5678 98.9125H41.7703C41.5003 98.4925 41.2403 98.09 40.9903 97.705C40.7403 97.32 40.4978 96.945 40.2628 96.58L38.5303 93.85L39.9928 94.9675H37.5103V93.205H39.2953C39.6953 93.205 40.0315 93.1563 40.304 93.0588C40.5765 92.9613 40.7828 92.795 40.9228 92.56C41.0628 92.325 41.1328 92.0025 41.1328 91.5925C41.1328 91.2875 41.0878 91.0413 40.9978 90.8538C40.9078 90.6663 40.7865 90.52 40.634 90.415C40.4815 90.31 40.3115 90.24 40.124 90.205C39.9365 90.17 39.7478 90.1525 39.5578 90.1525H36.1978L37.9528 88.6075C37.9528 89.2125 37.9528 89.7913 37.9528 90.3438C37.9528 90.8963 37.9528 91.51 37.9528 92.185V95.425C37.9528 96.095 37.9528 96.7 37.9528 97.24C37.9528 97.78 37.9528 98.3375 37.9528 98.9125H35.5303Z" fill="white"/>
<path fill-rule="evenodd" clip-rule="evenodd" d="M50.9102 97.24V98.9125H53.3702V97.24V95.425V94.3225H53.8648L55.2748 96.34C55.5548 96.745 55.8411 97.1563 56.1336 97.5738C56.4261 97.9913 56.7373 98.4375 57.0673 98.9125H60.0448C59.8048 98.5875 59.5273 98.2075 59.2123 97.7725C58.8973 97.3375 58.5736 96.89 58.2411 96.43C57.9086 95.97 57.5973 95.54 57.3073 95.14L55.8616 93.1414L57.1648 91.5325C57.6098 90.9775 58.0536 90.4275 58.4961 89.8825C58.9386 89.3375 59.3923 88.7825 59.8573 88.2175H57.0148C56.6248 88.7325 56.2823 89.1838 55.9873 89.5713C55.6923 89.9588 55.3948 90.3475 55.0948 90.7375L53.8348 92.3875H53.3702V91.795V89.9275V88.2175H50.9102V89.9275V91.795V95.425V97.24ZM53.3702 92.3875V94.3225H53.1748V92.3875H53.3702Z" fill="white"/>
<path fill-rule="evenodd" clip-rule="evenodd" d="M66.3877 97.24V98.9125H67.5352H68.7427H70.0927C71.1377 98.9125 72.0227 98.775 72.7477 98.5C73.4727 98.225 74.0564 97.8425 74.4989 97.3525C74.9414 96.8625 75.2639 96.2913 75.4664 95.6388C75.6689 94.9863 75.7702 94.2825 75.7702 93.5275C75.7702 92.6825 75.6552 91.9313 75.4252 91.2738C75.1952 90.6163 74.8614 90.06 74.4239 89.605C73.9864 89.15 73.4502 88.805 72.8152 88.57C72.1802 88.335 71.4552 88.2175 70.6402 88.2175H69.1439H67.7114H66.3877V89.9275V91.795V95.425V97.24ZM70.0855 96.9399H68.8555V95.9574V94.8324V92.3724V91.2062V90.1899H70.213C70.733 90.1899 71.1805 90.2687 71.5555 90.4262C71.9305 90.5837 72.2392 90.8087 72.4817 91.1012C72.7242 91.3937 72.9042 91.7424 73.0217 92.1474C73.1392 92.5524 73.198 93.0024 73.198 93.4974C73.198 94.1524 73.098 94.7399 72.898 95.2599C72.698 95.7799 72.3717 96.1899 71.9192 96.4899C71.4667 96.7899 70.8555 96.9399 70.0855 96.9399Z" fill="white"/>
<path fill-rule="evenodd" clip-rule="evenodd" d="M84.9845 98.6687C85.6895 98.9662 86.5245 99.115 87.4895 99.115C88.6745 99.115 89.6745 98.8725 90.4895 98.3875C91.3045 97.9025 91.9233 97.2425 92.3458 96.4075C92.7683 95.5725 92.9795 94.6225 92.9795 93.5575C92.9795 92.7875 92.8645 92.0675 92.6345 91.3975C92.4045 90.7275 92.0583 90.1375 91.5958 89.6275C91.1333 89.1175 90.5545 88.7188 89.8595 88.4313C89.1645 88.1438 88.352 88 87.422 88C86.197 88 85.1758 88.2475 84.3583 88.7425C83.5408 89.2375 82.9258 89.9062 82.5133 90.7487C82.1008 91.5912 81.8945 92.5325 81.8945 93.5725C81.8945 94.3075 82.0058 95.0075 82.2283 95.6725C82.4508 96.3375 82.7895 96.9288 83.2445 97.4462C83.6995 97.9637 84.2795 98.3713 84.9845 98.6687ZM88.7495 96.8013C88.3795 96.9888 87.947 97.0825 87.452 97.0825C86.952 97.0825 86.5158 96.9888 86.1433 96.8013C85.7708 96.6138 85.4608 96.3562 85.2133 96.0288C84.9658 95.7013 84.7795 95.3263 84.6545 94.9038C84.5295 94.4813 84.467 94.0325 84.467 93.5575C84.467 93.0825 84.532 92.6325 84.662 92.2075C84.792 91.7825 84.982 91.4062 85.232 91.0788C85.482 90.7513 85.7933 90.495 86.1658 90.31C86.5383 90.125 86.967 90.0325 87.452 90.0325C87.922 90.0325 88.3395 90.1225 88.7045 90.3025C89.0695 90.4825 89.3783 90.7325 89.6308 91.0525C89.8833 91.3725 90.0758 91.7462 90.2083 92.1737C90.3408 92.6012 90.407 93.0625 90.407 93.5575C90.407 94.0275 90.3458 94.4738 90.2233 94.8962C90.1008 95.3187 89.917 95.695 89.672 96.025C89.427 96.355 89.1195 96.6138 88.7495 96.8013Z" fill="white"/>
<path d="M101.355 98.9125C101.215 98.3825 101.065 97.8163 100.905 97.2138C100.745 96.6113 100.595 96.0525 100.455 95.5375L99.5695 92.1775C99.4095 91.5825 99.2358 90.9313 99.0483 90.2238C98.8608 89.5163 98.6845 88.8475 98.5195 88.2175H101.302C101.437 88.8725 101.58 89.5613 101.73 90.2838C101.88 91.0063 102.022 91.6925 102.157 92.3425L102.9 95.98H103.087L103.852 92.2975C103.942 91.8775 104.036 91.4338 104.133 90.9663C104.231 90.4988 104.33 90.03 104.43 89.56C104.53 89.09 104.625 88.6425 104.715 88.2175H107.347C107.487 88.8725 107.633 89.5538 107.786 90.2613C107.938 90.9688 108.087 91.6525 108.232 92.3125L109.027 95.98H109.207L109.965 92.29C110.095 91.66 110.233 90.9825 110.381 90.2575C110.528 89.5325 110.667 88.8525 110.797 88.2175H113.587C113.412 88.8525 113.231 89.52 113.043 90.22C112.856 90.92 112.682 91.565 112.522 92.155L111.607 95.5375C111.462 96.0675 111.31 96.6325 111.15 97.2325C110.99 97.8325 110.837 98.3925 110.692 98.9125H107.692C107.552 98.3125 107.405 97.6838 107.25 97.0263C107.095 96.3688 106.95 95.7425 106.815 95.1475L106.02 91.7575H105.832L105.067 95.1475C104.937 95.7375 104.796 96.365 104.643 97.03C104.491 97.695 104.347 98.3225 104.212 98.9125H101.355Z" fill="white"/>
<path d="M119.96 98.9125C119.96 98.3375 119.96 97.78 119.96 97.24C119.96 96.7 119.96 96.095 119.96 95.425V91.795C119.96 91.105 119.96 90.4825 119.96 89.9275C119.96 89.3725 119.96 88.8025 119.96 88.2175H122.112C122.612 88.9475 123.085 89.6363 123.53 90.2838C123.975 90.9313 124.42 91.58 124.865 92.23L126.605 94.75H126.785V91.795C126.785 91.105 126.785 90.4825 126.785 89.9275C126.785 89.3725 126.785 88.8025 126.785 88.2175H129.102C129.102 88.8025 129.102 89.3725 129.102 89.9275C129.102 90.4825 129.102 91.105 129.102 91.795V95.425C129.102 96.095 129.102 96.7 129.102 97.24C129.102 97.78 129.102 98.3375 129.102 98.9125H126.972C126.562 98.3125 126.132 97.6875 125.682 97.0375C125.232 96.3875 124.74 95.6775 124.205 94.9075L122.442 92.3575H122.27V95.425C122.27 96.095 122.27 96.7 122.27 97.24C122.27 97.78 122.27 98.3375 122.27 98.9125H119.96Z" fill="white"/>
</svg>
