<svg viewBox="0 0 24 24" fill="none" xmlns="http://www.w3.org/2000/svg">
<path d="M12 6C5.188 6 1 12 1 12C1 12 5.188 18 12 18C18.812 18 23 12 23 12C23 12 18.812 6 12 6ZM12 16C8.057 16 5.074 13.516 3.621 12C4.661 10.915 6.483 9.343 8.875 8.531C8.3117 9.23091 8.00314 10.1016 8 11C8 12.0609 8.42143 13.0783 9.17157 13.8284C9.92172 14.5786 10.9391 15 12 15C13.0609 15 14.0783 14.5786 14.8284 13.8284C15.5786 13.0783 16 12.0609 16 11C15.9969 10.1016 15.6883 9.23091 15.125 8.531C17.518 9.343 19.341 10.916 20.379 12C18.924 13.518 15.942 16 12 16Z"/>
</svg>
